# xmcd
#
# Track frame offsets:
#	150
#	12934
#	16014
#	30093
#	40701
#	54586
#	69811
#	86075
#	96071
#	107821
#	120703
#	138009
#	153883
#	168711
#	189367
#	213468
#	229013
#	247144
#	260681
#	272437
#	286865
#	299214
#	318720
#	333552
#
# Disc length: 4625 seconds
#
# Revision: 0
# Processed by: cddbd v1.4PL0 Copyright (c) Steve Scherf et al.
# Submitted via: EasyCDDAExtractor 4.6.9.1
#
DISCID=50120f18
DTITLE=Dwight Yoakam - Reprise Please Baby (The Warner Bros. Years) - Disc 1
DYEAR=2002
DGENRE=Country
TTITLE0=Honky Tonk Man
TTITLE1=Guitars, Cadillacs
TTITLE2=It Won't Hurt
TTITLE3=Miner's Prayer
TTITLE4=Little Sister
TTITLE5=Little Ways
TTITLE6=Please, Please Baby
TTITLE7=Always Late With Your Kisses
TTITLE8=This Drinkin' Will Kill Me
TTITLE9=Streets Of Bakersfield (With Buck Owens)
TTITLE10=I Sang Dixie
TTITLE11=I Got You
TTITLE12=I Hear You Knockin'
TTITLE13=Buenas Noches From A Lonely Room (She Wore Red Dresses)
TTITLE14=Long White Cadillac
TTITLE15=Turn It On, Turn It Up, Turn Me Loose
TTITLE16=You're the One
TTITLE17=Nothing's Changed Here
TTITLE18=It Only Hurts When I Cry
TTITLE19=The Heart That You Own
TTITLE20=The Distance Between You and Me
TTITLE21=Dangerous Man
TTITLE22=Send A MessageTo My Heart (With Patty Loveless)
TTITLE23=Takes A Lot To Rock You
EXTD=
EXTT0=
EXTT1=
EXTT2=
EXTT3=
EXTT4=
EXTT5=
EXTT6=
EXTT7=
EXTT8=
EXTT9=
EXTT10=
EXTT11=
EXTT12=
EXTT13=
EXTT14=
EXTT15=
EXTT16=
EXTT17=
EXTT18=
EXTT19=
EXTT20=
EXTT21=
EXTT22=
EXTT23=
PLAYORDER=
